<svg xmlns="http://www.w3.org/2000/svg" style="enable-background:new 0 0 32 32" viewBox="0 0 32 32"><path d="M2 20V6c0-1.1.9-2 2-2h24c1.1 0 2 .9 2 2v14c0 1.1-.9 2-2 2h-1c-.6 0-1-.4-1-1s.4-1 1-1h1V6H4v14h12c.6 0 1 .4 1 1s-.4 1-1 1H4c-1.1 0-2-.9-2-2zm6.8-3.5v-1.6c0-.9.8-1.6 1.6-1.6h3.2v-1.6h-4V10h3.9c.9 0 1.6.8 1.6 1.6V18h-4.7c-.8 0-1.5-.8-1.6-1.5zm1.6 0h3.1v-1.6h-3.1v1.6zm10.9-5.4c.9 0 1.7.8 1.7 1.7v3.4c0 .9-.8 1.7-1.7 1.7H17V7.7h1.7v3.4h2.6zm0 1.8h-2.6v3.4h2.6v-3.4zm3.4 15l-1.3-2.4c-.2-.3-.1-.8.3-1l1.4-.8c.5-.3.5-.9 0-1.2l-6-3.5c-.5-.3-1.1.1-1.1.6v6.8c0 .5.6.9 1.1.6l1.3-.8c.3-.2.8-.1 1 .3l1.4 2.4c.2.3.6.5 1 .3l.7-.4c.2-.2.4-.6.2-.9z"/></svg>